<?xml version="1.0" standalone="no"?>
<!DOCTYPE svg PUBLIC "-//W3C//DTD SVG 20010904//EN"
 "http://www.w3.org/TR/2001/REC-SVG-20010904/DTD/svg10.dtd">
<svg version="1.0" xmlns="http://www.w3.org/2000/svg"
 width="260.000000pt" height="260.000000pt" viewBox="0 0 260.000000 260.000000"
 preserveAspectRatio="xMidYMid meet">
<metadata>
Created by potrace 1.11, written by Peter Selinger 2001-2013
</metadata>
<g transform="translate(0.000000,260.000000) scale(0.100000,-0.100000)"
fill="#000000" stroke="none">
<path d="M2207 2544 c-1 -1 -37 -4 -79 -8 -42 -3 -100 -11 -130 -16 -29 -5
-69 -12 -88 -15 -79 -13 -247 -61 -315 -90 -127 -54 -193 -86 -277 -133 -253
-143 -525 -393 -700 -647 -172 -247 -287 -536 -333 -835 -3 -19 -8 -51 -11
-70 -3 -19 -8 -180 -11 -357 l-5 -323 23 0 c79 0 157 61 178 137 6 21 11 93
11 160 0 141 -15 123 125 143 575 82 1092 422 1428 940 146 225 257 512 292
755 3 22 8 46 10 52 5 14 17 191 19 262 l1 46 -68 0 c-37 1 -69 0 -70 -1z"/>
</g>
</svg>
