<?xml version="1.0" standalone="no"?>
<!DOCTYPE svg PUBLIC "-//W3C//DTD SVG 20010904//EN"
 "http://www.w3.org/TR/2001/REC-SVG-20010904/DTD/svg10.dtd">
<svg version="1.0" xmlns="http://www.w3.org/2000/svg"
 width="260.000000pt" height="260.000000pt" viewBox="0 0 260.000000 260.000000"
 preserveAspectRatio="xMidYMid meet">
<metadata>
Created by potrace 1.11, written by Peter Selinger 2001-2013
</metadata>
<g transform="translate(0.000000,260.000000) scale(0.100000,-0.100000)"
fill="#000000" stroke="none">
<path d="M1785 2115 c-280 -39 -513 -155 -728 -364 -228 -220 -360 -483 -396
-786 -6 -49 -11 -168 -11 -264 l0 -174 30 7 c38 7 75 34 89 64 6 13 11 63 11
112 l0 89 38 6 c346 57 575 174 794 403 224 236 348 510 365 810 l6 112 -54
-1 c-30 -1 -94 -7 -144 -14z"/>
</g>
</svg>
