<?xml version="1.0" standalone="no"?>
<!DOCTYPE svg PUBLIC "-//W3C//DTD SVG 20010904//EN"
 "http://www.w3.org/TR/2001/REC-SVG-20010904/DTD/svg10.dtd">
<svg version="1.0" xmlns="http://www.w3.org/2000/svg"
 width="260.000000pt" height="260.000000pt" viewBox="0 0 260.000000 260.000000"
 preserveAspectRatio="xMidYMid meet">
<metadata>
Created by potrace 1.11, written by Peter Selinger 2001-2013
</metadata>
<g transform="translate(0.000000,260.000000) scale(0.100000,-0.100000)"
fill="#000000" stroke="none">
<path d="M1780 2115 c-298 -44 -538 -170 -756 -397 -177 -184 -276 -359 -333
-587 -30 -121 -41 -231 -41 -423 0 -198 -2 -194 66 -162 49 23 66 63 72 166 5
100 -7 88 116 108 158 25 346 102 496 203 89 60 277 246 341 337 142 201 223
428 236 658 l6 112 -59 -1 c-32 -1 -97 -7 -144 -14z"/>
</g>
</svg>
